<svg width="45" height="40" viewBox="0 0 45 40" fill="none" xmlns="http://www.w3.org/2000/svg">
<path d="M35.054 0C37.5525 2.17975 40.4319 3.51831 43.6713 4.04329C44.6041 4.19372 44.754 4.31346 44.832 5.26825C45.087 8.4642 45.09 11.6509 44.5741 14.8285C44.1002 17.7358 42.5975 20.02 40.5429 21.9817C38.9952 23.4584 37.2675 24.6865 35.3719 25.6443C35.084 25.7886 34.6251 25.8684 34.3611 25.7364C31.3707 24.2167 28.7642 22.2028 26.7786 19.409C25.4439 17.5301 24.943 15.3688 24.7001 13.1154C24.4211 10.5089 24.4511 7.89623 24.6731 5.28667C24.754 4.34109 24.889 4.19679 25.8158 4.04636C29.0522 3.51524 31.9346 2.18589 34.4331 0C34.6401 0 34.847 0 35.054 0ZM26.2837 5.74104C26.0888 8.31683 26.0678 10.8742 26.3827 13.4254C26.5927 15.117 26.9916 16.7503 27.9574 18.1933C29.6491 20.7199 31.9616 22.4975 34.5471 23.9466C34.6791 24.0203 34.955 23.965 35.096 23.8668C36.5087 22.8628 37.9844 21.9295 39.2921 20.7936C41.2477 19.0959 42.5735 16.9683 42.9784 14.2973C43.3983 11.5373 43.4013 8.77427 43.2124 6.002C43.2034 5.86691 42.9484 5.67043 42.7804 5.63359C39.991 5.04106 37.4205 3.9297 35.111 2.21659C34.847 2.02011 34.6731 1.98941 34.3971 2.19817C32.6185 3.54287 30.6509 4.50687 28.5363 5.15773C27.7984 5.38184 27.0396 5.54762 26.2837 5.74104Z" fill="#52B7FF"/>
<path d="M10.3869 24.8615C9.12117 23.5751 8.4913 22.0339 8.66827 20.2164C8.80924 18.752 9.44811 17.5209 10.5489 16.56C12.6815 14.7057 15.8548 14.853 17.8404 16.8762C19.6521 18.7275 20.2459 22.1629 17.6785 24.8584C17.8224 24.9167 17.9514 24.9751 18.0834 25.0242C20.7139 26.0312 22.6305 28.6591 22.2855 32.1775C22.1386 33.6542 20.9148 34.7594 19.4631 34.7686C15.8398 34.787 12.2136 34.787 8.59028 34.7686C7.0156 34.7594 5.81884 33.4669 5.73485 31.8612C5.56689 28.653 7.30354 25.893 10.3869 24.8615ZM13.9712 33.0801C15.7498 33.0801 17.5255 33.0862 19.3041 33.077C20.045 33.0739 20.5549 32.6288 20.6449 31.9472C20.9838 29.3561 19.2082 26.7741 16.6827 26.4149C15.3089 26.2215 13.8962 26.3013 12.5015 26.2983C9.45111 26.2921 7.38152 28.4473 7.39952 31.5757C7.40552 32.5888 7.87043 33.077 8.85123 33.0801C10.5549 33.0862 12.2645 33.0831 13.9712 33.0801ZM17.7504 20.7721C17.7444 18.6753 16.0708 16.9622 14.0252 16.9652C11.9526 16.9683 10.2819 18.6906 10.2939 20.8182C10.3059 22.9058 11.9946 24.6097 14.0462 24.5974C16.0948 24.5852 17.7564 22.869 17.7504 20.7721Z" fill="#52B7FF"/>
<path d="M30.5579 34.7778C29.2621 34.7778 27.9694 34.7809 26.6737 34.7778C26.0138 34.7747 25.6389 34.4677 25.6299 33.9427C25.6209 33.4116 26.0018 33.0862 26.6497 33.0831C29.2741 33.0801 31.8986 33.0801 34.5201 33.0831C35.18 33.0831 35.5549 33.3901 35.5639 33.9182C35.5729 34.4616 35.183 34.7778 34.4901 34.7778C33.1824 34.7809 31.8686 34.7778 30.5579 34.7778Z" fill="#52B7FF"/>
<path d="M28.9172 29.6876C28.1404 29.6876 27.3635 29.6938 26.5867 29.6845C25.9898 29.6784 25.6149 29.3284 25.6329 28.8126C25.6479 28.3184 26.0078 27.996 26.5867 27.9929C28.1584 27.9868 29.7271 27.9868 31.2987 27.9929C31.8956 27.996 32.2705 28.3491 32.2555 28.8648C32.2406 29.3591 31.8776 29.6784 31.3017 29.6845C30.5039 29.6938 29.7091 29.6876 28.9172 29.6876Z" fill="#52B7FF"/>
<path d="M26.2837 5.74104C27.0426 5.54455 27.7984 5.38184 28.5393 5.15465C30.6509 4.5038 32.6215 3.54287 34.4001 2.1951C34.6761 1.98634 34.85 2.01704 35.114 2.21352C37.4235 3.9297 39.991 5.03799 42.7834 5.63052C42.9514 5.66736 43.2064 5.86077 43.2154 5.99893C43.4043 8.7712 43.3983 11.5343 42.9814 14.2943C42.5765 16.9652 41.2477 19.0928 39.2951 20.7905C37.9874 21.9265 36.5117 22.8598 35.099 23.8637C34.961 23.9619 34.6821 24.0172 34.5501 23.9435C31.9646 22.4944 29.6551 20.7169 27.9604 18.1902C26.9946 16.7473 26.5957 15.114 26.3857 13.4224C26.0648 10.8773 26.0858 8.3199 26.2837 5.74104ZM33.7672 14.9267C32.6935 13.8184 31.6647 12.7531 30.6269 11.6908C30.18 11.2334 29.6641 11.1996 29.3131 11.5803C28.9622 11.9579 29.0072 12.4215 29.4571 12.8851C30.6509 14.1131 31.8446 15.335 33.0444 16.5569C33.5843 17.1095 33.9622 17.1126 34.5051 16.5661C35.2669 15.7986 36.0198 15.0188 36.7756 14.2451C37.8494 13.1461 38.9262 12.05 39.997 10.9448C40.4439 10.4843 40.4859 9.95625 40.117 9.59705C39.745 9.23171 39.3011 9.27776 38.8422 9.73214C38.6323 9.9409 38.4253 10.1558 38.2184 10.3676C36.7546 11.8689 35.2909 13.3671 33.7672 14.9267Z" fill="#A9DBFF"/>
<path d="M13.9712 33.0801C12.2615 33.0801 10.5549 33.0831 8.84523 33.0801C7.86443 33.077 7.39952 32.5888 7.39352 31.5757C7.37852 28.4504 9.44811 26.2952 12.4985 26.3013C13.8932 26.3044 15.3089 26.2246 16.6797 26.418C19.2082 26.7772 20.9838 29.3561 20.6419 31.9503C20.5519 32.6318 20.042 33.077 19.3011 33.0801C17.5255 33.0862 15.7498 33.0801 13.9712 33.0801Z" fill="#A9DBFF"/>
<path d="M17.7504 20.7721C17.7564 22.869 16.0948 24.5852 14.0462 24.5974C11.9976 24.6097 10.3059 22.9058 10.2939 20.8182C10.2819 18.6906 11.9496 16.9683 14.0252 16.9652C16.0708 16.9622 17.7474 18.6753 17.7504 20.7721Z" fill="#A9DBFF"/>
<path d="M33.7672 14.9267C35.2939 13.3671 36.7546 11.8689 38.2184 10.3738C38.4253 10.1619 38.6323 9.94704 38.8422 9.73828C39.2981 9.2839 39.745 9.23785 40.117 9.60319C40.4829 9.96239 40.4439 10.4874 39.997 10.951C38.9262 12.0531 37.8494 13.1522 36.7756 14.2513C36.0198 15.0249 35.2669 15.8047 34.5051 16.5723C33.9622 17.1187 33.5873 17.1157 33.0444 16.5631C31.8446 15.3412 30.6509 14.1162 29.4571 12.8912C29.0072 12.4277 28.9622 11.9671 29.3131 11.5865C29.6671 11.2058 30.18 11.2395 30.6269 11.697C31.6617 12.7531 32.6935 13.8184 33.7672 14.9267Z" fill="#52B7FF"/>
<path d="M22.7205 10.208C22.7205 9.77563 22.37 9.42513 21.9376 9.42513H3.76425C3.24535 9.42513 2.75045 9.53258 2.29754 9.72907C1.61968 10.0207 1.04679 10.5089 0.641872 11.1229C0.437912 11.4299 0.278944 11.7707 0.167966 12.1329C0.059988 12.4952 0 12.882 0 13.2781V36.144C0 36.6751 0.104979 37.1817 0.296941 37.6453C0.581884 38.3391 1.05879 38.9255 1.65867 39.3399C1.95861 39.5487 2.29154 39.7114 2.64547 39.825C2.9994 39.9386 3.37732 39.9969 3.76425 39.9969H37.3635C37.8824 39.9969 38.3773 39.8895 38.8302 39.693C39.5081 39.4013 40.081 38.9132 40.4859 38.2992C40.6899 37.9922 40.8488 37.6514 40.9598 37.2891C41.0708 36.9269 41.1278 36.54 41.1278 36.144V26.2188C41.1278 25.7964 40.7853 25.454 40.3629 25.454C39.9405 25.454 39.5981 25.7964 39.5981 26.2188V36.1471C39.5981 36.4664 39.5351 36.7641 39.4241 37.0374C39.2562 37.4457 38.9712 37.7988 38.6143 38.0444C38.4343 38.1672 38.2394 38.2654 38.0294 38.333C37.8194 38.4005 37.5975 38.4343 37.3635 38.4343H3.76425C3.45231 38.4343 3.16137 38.3698 2.89442 38.2562C2.4955 38.0843 2.15057 37.7926 1.91062 37.4273C1.79064 37.2431 1.69466 37.0435 1.62867 36.8286C1.56269 36.6137 1.52969 36.3865 1.52969 36.1471V13.2781C1.52969 12.9588 1.59268 12.661 1.70366 12.3878C1.87163 11.9794 2.15657 11.6264 2.5135 11.3808C2.69346 11.258 2.88842 11.1597 3.09838 11.0922C3.30834 11.0246 3.53029 10.9909 3.76425 10.9909H21.9376C22.37 10.9909 22.7205 10.6404 22.7205 10.208Z" fill="#52B7FF"/>
</svg>
