<svg width="37" height="40" viewBox="0 0 37 40" fill="none" xmlns="http://www.w3.org/2000/svg">
<path d="M37 28.0025C24.6777 28.0025 12.3554 28.0025 0 28.0025C0 25.3364 0 22.6869 0 20.0125C1.29752 20.0125 2.58678 20.0125 3.94215 20.0125C3.94215 19.8209 3.94215 19.6626 3.94215 19.5043C3.94215 14.0221 3.96694 8.53989 3.92562 3.04936C3.90909 1.39138 4.95868 0.299937 6.40496 0.0749844C6.47107 0.0666528 6.52892 0.0249948 6.58678 0C14.4628 0 22.3471 0 30.2231 0C30.2479 0.0166632 30.2645 0.041658 30.2893 0.0499896C32.2893 0.583212 33.0331 1.55801 33.0331 3.65757C33.0331 8.93147 33.0331 14.2054 33.0331 19.4876C33.0331 19.6459 33.0331 19.8125 33.0331 20.0042C34.3884 20.0042 35.6942 20.0042 37 20.0042C37 22.6703 37 25.3364 37 28.0025ZM5.28926 5.99875C5.28926 12.914 5.28926 19.7792 5.28926 26.6444C6.93388 26.6444 8.54545 26.6444 10.1818 26.6444C6.30579 21.5705 7.8595 15.2968 11.3802 12.0975C14.9917 8.82316 20.4215 8.41491 24.438 11.1977C26.4545 12.5974 27.8678 14.4803 28.5785 16.8465C29.6446 20.4041 28.9421 23.6534 26.7686 26.6361C28.438 26.6361 30.0578 26.6361 31.6777 26.6361C31.6777 19.9542 31.6777 13.2972 31.6777 6.65695C28.7107 6.08207 26.9752 4.31577 26.4298 1.36638C21.1074 1.36638 15.8182 1.36638 10.5289 1.36638C9.98347 4.31577 8.04959 5.63216 5.28926 5.99875ZM18.4545 26.6694C20.5041 26.6694 22.5537 26.6778 24.6116 26.6611C24.7934 26.6611 25.0248 26.5778 25.1488 26.4445C27.1983 24.2283 28.0744 21.6122 27.6364 18.6128C26.8678 13.3972 22 9.87294 16.8347 10.8477C13.2645 11.5226 10.8182 13.6805 9.70248 17.1464C8.58678 20.5957 9.38017 23.7117 11.7934 26.4028C11.9256 26.5528 12.1901 26.6528 12.3884 26.6528C14.4132 26.6778 16.4298 26.6694 18.4545 26.6694ZM1.31405 26.6361C2.20661 26.6361 3.05785 26.6361 3.90909 26.6361C3.90909 24.8532 3.90909 23.1035 3.90909 21.3539C3.03306 21.3539 2.18182 21.3539 1.31405 21.3539C1.31405 23.1202 1.31405 24.8698 1.31405 26.6361ZM35.6446 26.6528C35.6446 24.8615 35.6446 23.1119 35.6446 21.3705C34.7603 21.3705 33.9008 21.3705 33.0331 21.3705C33.0331 22.2787 33.0331 23.1535 33.0331 24.0283C33.0331 24.8948 33.0331 25.7696 33.0331 26.6528C33.9256 26.6528 34.7686 26.6528 35.6446 26.6528ZM27.8347 1.40804C28.0083 3.39929 29.9752 5.18225 31.7107 5.22391C31.7107 4.66569 31.7107 4.11581 31.7107 3.56592C31.7107 3.39929 31.7107 3.23266 31.6942 3.06603C31.6033 2.17455 31.0992 1.54135 30.2066 1.4247C29.4298 1.33306 28.6446 1.40804 27.8347 1.40804ZM9.1405 1.29973C8.2314 1.34139 7.34711 1.34139 6.47934 1.43303C5.8843 1.49969 5.38017 1.84961 5.30578 2.49115C5.22314 3.18267 5.28926 3.89086 5.28926 4.59071C7.21488 4.56571 9 3.06603 9.1405 1.29973Z" fill="#A856FA"/>
<path d="M14.5785 33.3347C14.5785 32.2599 14.5785 31.2435 14.5785 30.2354C14.5785 29.5438 14.7851 29.3356 15.4545 29.3356C17.0661 29.3356 18.6777 29.3356 20.2893 29.3356C20.9835 29.3356 21.1901 29.5522 21.1901 30.2687C21.1901 31.1435 21.1901 32.0183 21.1901 32.8931C21.1901 33.0265 21.1983 33.1598 21.2066 33.3347C21.8182 33.3347 22.405 33.3431 23 33.3347C23.3471 33.3264 23.6281 33.418 23.7686 33.7596C23.9008 34.0929 23.7603 34.3428 23.5289 34.5761C21.8347 36.2841 20.1405 37.9921 18.4463 39.7001C18.0331 40.1166 17.719 40.1083 17.314 39.7001C15.6198 37.9921 13.9256 36.2841 12.2231 34.5761C11.9835 34.3345 11.8595 34.0762 11.9835 33.7596C12.1157 33.4097 12.405 33.3264 12.7521 33.3347C13.3471 33.3431 13.9339 33.3347 14.5785 33.3347ZM14.3223 34.6678C15.5289 35.8842 16.7273 37.0923 17.843 38.2254C19.0083 37.0506 20.2066 35.8425 21.3719 34.6678C21.3719 34.6678 21.2893 34.6678 21.2066 34.6678C19.8843 34.6594 19.8678 34.6428 19.8678 33.3181C19.8678 32.4516 19.8678 31.5768 19.8678 30.7019C18.5207 30.7019 17.2231 30.7019 15.9174 30.7019C15.9091 30.8019 15.9008 30.8686 15.9008 30.9352C15.9008 31.91 15.9091 32.8765 15.9008 33.8513C15.8926 34.4262 15.6529 34.6594 15.0909 34.6678C14.8347 34.6678 14.5702 34.6678 14.3223 34.6678Z" fill="#A856FA"/>
<path d="M18.4545 26.6694C16.4298 26.6694 14.405 26.6778 12.3802 26.6611C12.1736 26.6611 11.9174 26.5528 11.7851 26.4112C9.3719 23.7284 8.57851 20.604 9.69421 17.1548C10.8182 13.6805 13.2562 11.5226 16.8264 10.8561C21.9835 9.88127 26.8595 13.4055 27.6281 18.6211C28.0661 21.6205 27.1901 24.2449 25.1405 26.4528C25.0248 26.5861 24.7851 26.6611 24.6033 26.6694C22.562 26.6694 20.5124 26.6694 18.4545 26.6694ZM13.8182 19.3376C13.8264 19.2627 13.8264 19.221 13.8347 19.1793C13.843 19.1293 13.8595 19.071 13.8843 19.021C14.2645 18.0796 14.9917 17.6963 15.9587 17.6713C16.3967 17.6547 16.686 17.3547 16.6612 16.9715C16.6364 16.5965 16.3554 16.3549 15.9256 16.3466C14.3802 16.3216 13.124 17.1964 12.6116 18.6794C12.5372 18.8961 12.4793 19.121 12.405 19.346C12.1074 19.346 11.8264 19.3376 11.5537 19.346C11.157 19.3626 10.8926 19.6292 10.8843 19.9958C10.876 20.3708 11.1488 20.654 11.5702 20.6707C11.8595 20.679 12.1405 20.6707 12.4215 20.6707C12.6364 21.6122 13.0165 22.412 13.7686 22.9869C15.4793 24.2866 17.5372 23.8034 18.4711 21.8704C18.6198 21.5622 18.719 21.2206 18.876 20.9206C18.9339 20.8123 19.0744 20.6874 19.1818 20.6874C20.5041 20.6707 21.8264 20.679 23.1405 20.679C23.1488 20.729 23.157 20.754 23.157 20.779C23.1488 20.8207 23.1322 20.8623 23.124 20.8956C22.7686 21.8954 21.9752 22.2454 21.0083 22.337C20.5537 22.3787 20.281 22.6453 20.2975 23.0369C20.314 23.4285 20.6116 23.6701 21.0661 23.6701C21.1901 23.6701 21.314 23.6617 21.438 23.6367C23.1157 23.3535 24.2149 22.4453 24.5537 20.6707C24.8347 20.6707 25.1074 20.679 25.3802 20.6707C25.8017 20.654 26.0826 20.3874 26.0826 20.0042C26.0826 19.6292 25.8017 19.3543 25.3802 19.3376C25.1074 19.3293 24.8347 19.3376 24.5537 19.3376C24.2314 17.6463 23.2149 16.7132 21.6033 16.4049C20.3223 16.1633 19.3967 16.5715 18.7355 17.6963C18.4793 18.1379 18.314 18.6295 18.0826 19.0877C18.0331 19.1877 17.9091 19.3293 17.8182 19.3293C16.4959 19.346 15.1653 19.3376 13.8182 19.3376Z" fill="#D8ABFC"/>
<path d="M1.31405 26.6361C1.31405 24.8615 1.31405 23.1202 1.31405 21.3539C2.18182 21.3539 3.02479 21.3539 3.90909 21.3539C3.90909 23.1035 3.90909 24.8532 3.90909 26.6361C3.05785 26.6361 2.20661 26.6361 1.31405 26.6361Z" fill="#D8ABFC"/>
<path d="M35.6446 26.6528C34.7686 26.6528 33.9256 26.6528 33.0331 26.6528C33.0331 25.7696 33.0331 24.8948 33.0331 24.0283C33.0331 23.1535 33.0331 22.2787 33.0331 21.3705C33.9008 21.3705 34.7603 21.3705 35.6446 21.3705C35.6446 23.1119 35.6446 24.8615 35.6446 26.6528Z" fill="#D8ABFC"/>
<path d="M27.8347 1.40804C28.6446 1.40804 29.4298 1.33306 30.2066 1.4247C31.0992 1.53301 31.6033 2.16622 31.6942 3.06603C31.7107 3.23266 31.7107 3.39929 31.7107 3.56592C31.7107 4.11581 31.7107 4.67403 31.7107 5.22391C29.9752 5.17392 28.0083 3.39096 27.8347 1.40804Z" fill="#D8ABFC"/>
<path d="M9.1405 1.29973C9 3.06603 7.21488 4.56572 5.28926 4.59904C5.28926 3.89919 5.2314 3.191 5.30578 2.49948C5.38016 1.85795 5.8843 1.50802 6.47934 1.44137C7.34711 1.34139 8.2314 1.34139 9.1405 1.29973Z" fill="#D8ABFC"/>
<path d="M14.3223 34.6678C14.5702 34.6678 14.8347 34.6678 15.0909 34.6678C15.6529 34.6594 15.8926 34.4262 15.9008 33.8513C15.9091 32.8765 15.9008 31.91 15.9008 30.9352C15.9008 30.8686 15.9091 30.7936 15.9174 30.7019C17.2231 30.7019 18.5207 30.7019 19.8678 30.7019C19.8678 31.5768 19.8678 32.4516 19.8678 33.3181C19.8678 34.6428 19.8843 34.6594 21.2066 34.6678C21.2893 34.6678 21.3719 34.6678 21.3719 34.6678C20.2066 35.8425 19.0083 37.0506 17.843 38.2254C16.7273 37.0923 15.5289 35.8842 14.3223 34.6678Z" fill="#D8ABFC"/>
<path d="M13.8182 19.3376C15.157 19.3376 16.4959 19.346 17.8264 19.3293C17.9174 19.3293 18.0413 19.1877 18.0909 19.0877C18.314 18.6295 18.4793 18.1379 18.7438 17.6963C19.405 16.5715 20.3388 16.1633 21.6116 16.4049C23.2231 16.7132 24.2397 17.6463 24.562 19.3376C24.843 19.3376 25.1157 19.3293 25.3884 19.3376C25.8099 19.3543 26.0909 19.6209 26.0909 20.0042C26.0909 20.3791 25.8099 20.654 25.3884 20.6707C25.1157 20.679 24.843 20.6707 24.562 20.6707C24.2231 22.437 23.124 23.3535 21.4463 23.6367C21.3223 23.6534 21.1983 23.6701 21.0744 23.6701C20.6198 23.6784 20.3223 23.4285 20.3058 23.0369C20.2893 22.6453 20.562 22.3787 21.0165 22.337C21.9835 22.2454 22.7769 21.8954 23.1322 20.8956C23.1488 20.854 23.1653 20.8207 23.1653 20.779C23.1653 20.754 23.157 20.729 23.1488 20.679C21.8347 20.679 20.5124 20.6707 19.1901 20.6874C19.0826 20.6874 18.9339 20.8123 18.8843 20.9206C18.7273 21.2289 18.6281 21.5622 18.4793 21.8704C17.5455 23.795 15.4876 24.2866 13.7769 22.9869C13.0165 22.412 12.6446 21.6122 12.4298 20.6707C12.1488 20.6707 11.8595 20.679 11.5785 20.6707C11.1653 20.654 10.8843 20.3708 10.8926 19.9958C10.9008 19.6376 11.1736 19.371 11.562 19.346C11.8347 19.3293 12.1074 19.346 12.4132 19.346C12.4793 19.1127 12.5455 18.8961 12.6198 18.6794C13.1322 17.2048 14.3884 16.3216 15.9339 16.3466C16.3636 16.3549 16.6446 16.5965 16.6694 16.9715C16.6942 17.3547 16.405 17.6547 15.9669 17.6713C15 17.7046 14.2645 18.0796 13.8926 19.021C13.876 19.071 13.8595 19.1293 13.843 19.1793C13.8264 19.221 13.8264 19.2627 13.8182 19.3376ZM17.4793 20.6957C16.2645 20.6957 15.0496 20.6957 13.8347 20.6957C14.0578 21.7288 14.8843 22.3537 15.9917 22.3287C16.6942 22.3204 17.3306 21.6205 17.4793 20.6957ZM19.4959 19.321C20.719 19.321 21.9421 19.321 23.1653 19.321C23.0165 18.3545 22.0909 17.663 20.9917 17.6713C20.281 17.6797 19.6281 18.3962 19.4959 19.321Z" fill="#A856FA"/>
<path d="M17.4793 20.6957C17.3388 21.6205 16.6942 22.3204 15.9917 22.3287C14.8843 22.3453 14.0578 21.7288 13.8347 20.6957C15.0496 20.6957 16.2645 20.6957 17.4793 20.6957Z" fill="#D8ABFC"/>
<path d="M19.4959 19.321C19.6364 18.3962 20.2893 17.6796 20.9835 17.6713C22.0909 17.663 23.0083 18.3545 23.157 19.321C21.9339 19.321 20.719 19.321 19.4959 19.321Z" fill="#D8ABFC"/>
</svg>
