<svg width="80" height="80" viewBox="0 0 80 80" fill="none" xmlns="http://www.w3.org/2000/svg">
<path d="M0 40C0 17.9086 17.9086 0 40 0C62.0914 0 80 17.9086 80 40C80 62.0914 62.0914 80 40 80C17.9086 80 0 62.0914 0 40Z" fill="url(#paint0_linear_9446_4764)"/>
<path d="M53.0796 24.2397L42.0796 20.1197C40.9396 19.6997 39.0796 19.6997 37.9396 20.1197L26.9396 24.2397C24.8196 25.0397 23.0996 27.5197 23.0996 29.7797V45.9797C23.0996 47.5997 24.1596 49.7397 25.4596 50.6997L36.4596 58.9197C38.3996 60.3797 41.5796 60.3797 43.5196 58.9197L54.5196 50.6997C55.8196 49.7197 56.8796 47.5997 56.8796 45.9797V29.7797C56.8996 27.5197 55.1796 25.0397 53.0796 24.2397ZM46.9596 35.4397L38.3596 44.0397C38.0596 44.3397 37.6796 44.4797 37.2996 44.4797C36.9196 44.4797 36.5396 44.3397 36.2396 44.0397L33.0396 40.7997C32.4596 40.2197 32.4596 39.2597 33.0396 38.6797C33.6196 38.0997 34.5796 38.0997 35.1596 38.6797L37.3196 40.8397L44.8596 33.2997C45.4396 32.7197 46.3996 32.7197 46.9796 33.2997C47.5596 33.8797 47.5596 34.8597 46.9596 35.4397Z" fill="white"/>
<defs>
<linearGradient id="paint0_linear_9446_4764" x1="40" y1="0" x2="40" y2="80" gradientUnits="userSpaceOnUse">
<stop stop-color="#9F4AFA"/>
<stop offset="1" stop-color="#1D5DE5"/>
</linearGradient>
</defs>
</svg>
